<?plantuml 1.2026.0?><svg xmlns="http://www.w3.org/2000/svg" xmlns:xlink="http://www.w3.org/1999/xlink" contentStyleType="text/css" data-diagram-type="CLASS" height="443px" preserveAspectRatio="none" style="width:400px;height:443px;background:#FFFFFF;" version="1.1" viewBox="0 0 400 443" width="400px" zoomAndPan="magnify"><title>Conceptual Data Model for Mini Social Network</title><defs/><g><g class="title" data-source-line="1"><text fill="#000000" font-family="sans-serif" font-size="14" font-weight="bold" lengthAdjust="spacing" textLength="372.7227" x="10" y="22.9951">Conceptual Data Model for Mini Social Network</text></g><!--class User--><g class="entity" data-qualified-name="User" data-source-line="3" id="ent0002"><rect fill="#F1F1F1" height="48" rx="2.5" ry="2.5" style="stroke:#181818;stroke-width:0.5;" width="63.9102" x="175.8149" y="44.2969"/><ellipse cx="190.8149" cy="60.2969" fill="#ADD1B2" rx="11" ry="11" style="stroke:#181818;stroke-width:1;"/><path d="M194.9242,66.2969 L187.2055,66.2969 L187.2055,53.9063 L194.9242,53.9063 L194.9242,56.0625 L189.6586,56.0625 L189.6586,58.7344 L194.4242,58.7344 L194.4242,60.8906 L189.6586,60.8906 L189.6586,64.1406 L194.9242,64.1406 L194.9242,66.2969 Z " fill="#000000"/><text fill="#000000" font-family="sans-serif" font-size="14" lengthAdjust="spacing" textLength="31.9102" x="204.8149" y="65.1436">User</text><line style="stroke:#181818;stroke-width:0.5;" x1="176.8149" x2="238.725" y1="76.2969" y2="76.2969"/><line style="stroke:#181818;stroke-width:0.5;" x1="176.8149" x2="238.725" y1="84.2969" y2="84.2969"/></g><!--class Post--><g class="entity" data-qualified-name="Post" data-source-line="5" id="ent0003"><rect fill="#F1F1F1" height="48" rx="2.5" ry="2.5" style="stroke:#181818;stroke-width:0.5;" width="61.791" x="126.8749" y="169.2969"/><ellipse cx="141.8749" cy="185.2969" fill="#ADD1B2" rx="11" ry="11" style="stroke:#181818;stroke-width:1;"/><path d="M145.9842,191.2969 L138.2655,191.2969 L138.2655,178.9063 L145.9842,178.9063 L145.9842,181.0625 L140.7186,181.0625 L140.7186,183.7344 L145.4842,183.7344 L145.4842,185.8906 L140.7186,185.8906 L140.7186,189.1406 L145.9842,189.1406 L145.9842,191.2969 Z " fill="#000000"/><text fill="#000000" font-family="sans-serif" font-size="14" lengthAdjust="spacing" textLength="29.791" x="155.8749" y="190.1436">Post</text><line style="stroke:#181818;stroke-width:0.5;" x1="127.8749" x2="187.6659" y1="201.2969" y2="201.2969"/><line style="stroke:#181818;stroke-width:0.5;" x1="127.8749" x2="187.6659" y1="209.2969" y2="209.2969"/></g><!--class Like--><g class="entity" data-qualified-name="Like" data-source-line="7" id="ent0004"><rect fill="#F1F1F1" height="48" rx="2.5" ry="2.5" style="stroke:#181818;stroke-width:0.5;" width="60.4102" x="178.5649" y="294.2969"/><ellipse cx="193.5649" cy="310.2969" fill="#ADD1B2" rx="11" ry="11" style="stroke:#181818;stroke-width:1;"/><path d="M197.6742,316.2969 L189.9555,316.2969 L189.9555,303.9063 L197.6742,303.9063 L197.6742,306.0625 L192.4086,306.0625 L192.4086,308.7344 L197.1742,308.7344 L197.1742,310.8906 L192.4086,310.8906 L192.4086,314.1406 L197.6742,314.1406 L197.6742,316.2969 Z " fill="#000000"/><text fill="#000000" font-family="sans-serif" font-size="14" lengthAdjust="spacing" textLength="28.4102" x="207.5649" y="315.1436">Like</text><line style="stroke:#181818;stroke-width:0.5;" x1="179.5649" x2="237.975" y1="326.2969" y2="326.2969"/><line style="stroke:#181818;stroke-width:0.5;" x1="179.5649" x2="237.975" y1="334.2969" y2="334.2969"/></g><!--link User to Post--><g class="link" data-entity-1="ent0002" data-entity-2="ent0003" data-link-type="association" data-source-line="9" id="lnk5"><path codeLine="9" d="M196.1949,92.5569 C191.7849,101.7369 186.8549,112.4269 182.7749,122.2969 C176.4149,137.6769 170.1149,155.3369 165.4249,169.0669" fill="none" id="User-Post" style="stroke:#181818;stroke-width:1;"/><text fill="#000000" font-family="sans-serif" font-size="13" lengthAdjust="spacing" textLength="48.3247" x="183.7749" y="135.3638">creates</text></g><!--link User to Like--><g class="link" data-entity-1="ent0002" data-entity-2="ent0004" data-link-type="association" data-source-line="10" id="lnk6"><path codeLine="10" d="M223.9049,92.7669 C229.0749,101.6169 234.1449,112.0369 236.7749,122.2969 C252.4049,183.4369 251.9549,203.0369 236.7749,264.2969 C234.2149,274.5969 229.2549,285.1069 224.2049,294.0169" fill="none" id="User-Like" style="stroke:#181818;stroke-width:1;"/><text fill="#000000" font-family="sans-serif" font-size="13" lengthAdjust="spacing" textLength="29.5229" x="249.3249" y="197.8638">likes</text></g><!--link Post to Like--><g class="link" data-entity-1="ent0003" data-entity-2="ent0004" data-link-type="association" data-source-line="11" id="lnk7"><path codeLine="11" d="M157.1949,217.4969 C157.6149,231.5369 159.5649,249.5269 165.7749,264.2969 C170.2649,275.0069 177.6249,285.2769 184.9849,293.8869" fill="none" id="Post-Like" style="stroke:#181818;stroke-width:1;"/><text fill="#000000" font-family="sans-serif" font-size="13" lengthAdjust="spacing" textLength="65.5967" x="166.7749" y="260.3638">is liked by</text></g><g class="legend" data-source-line="13"><rect fill="#DDDDDD" height="62.8906" rx="7.5" ry="7.5" style="stroke:#000000;stroke-width:1;" width="153.6641" x="119.5293" y="360.2969"/><text fill="#000000" font-family="sans-serif" font-size="14" lengthAdjust="spacing" textLength="51.6729" x="124.5293" y="378.292">Legend</text><text fill="#000000" font-family="sans-serif" font-size="14" lengthAdjust="spacing" textLength="4.4502" x="124.5293" y="396.5889">&#160;</text><text fill="#000000" font-family="sans-serif" font-size="14" font-weight="bold" lengthAdjust="spacing" textLength="58.2354" x="128.9795" y="396.5889">Symbol</text><text fill="#000000" font-family="sans-serif" font-size="14" lengthAdjust="spacing" textLength="4.4502" x="187.2148" y="396.5889">&#160;</text><text fill="#000000" font-family="sans-serif" font-size="14" lengthAdjust="spacing" textLength="4.4502" x="191.665" y="396.5889">&#160;</text><text fill="#000000" font-family="sans-serif" font-size="14" font-weight="bold" lengthAdjust="spacing" textLength="67.6279" x="196.1152" y="396.5889">Meaning</text><text fill="#000000" font-family="sans-serif" font-size="14" lengthAdjust="spacing" textLength="4.4502" x="263.7432" y="396.5889">&#160;</text><text fill="#000000" font-family="sans-serif" font-size="14" lengthAdjust="spacing" textLength="8.8457" x="128.9795" y="412.8857">E</text><text fill="#000000" font-family="sans-serif" font-size="14" lengthAdjust="spacing" textLength="40.8721" x="196.1152" y="412.8857">Entity</text><line style="stroke:#000000;stroke-width:1;" x1="124.5293" x2="268.1934" y1="383.5938" y2="383.5938"/><line style="stroke:#000000;stroke-width:1;" x1="124.5293" x2="268.1934" y1="399.8906" y2="399.8906"/><line style="stroke:#000000;stroke-width:1;" x1="124.5293" x2="268.1934" y1="416.1875" y2="416.1875"/><line style="stroke:#000000;stroke-width:1;" x1="124.5293" x2="124.5293" y1="383.5938" y2="416.1875"/><line style="stroke:#000000;stroke-width:1;" x1="191.665" x2="191.665" y1="383.5938" y2="416.1875"/><line style="stroke:#000000;stroke-width:1;" x1="268.1934" x2="268.1934" y1="383.5938" y2="416.1875"/></g><?plantuml-src JOv12i8m44NtESMi0xr0jzfTAqBn06aprg4n8yc81ElTJLEeheRt_cVuGk8G3kn7VCZJE3WQCT2nHGTN3j2H9-Xvf1oTK5uSPgNG2qc2IyG0xy_EPuxopotDMBWKgsehr306D89nrwLNWyidgjBvIOh5MnYIKWudz1O2JJTHRG6rWDPzkW_ij8OLEZIU_BHI3flicctEadVPxSKN?></g></svg>