<?plantuml 1.2026.0?><svg xmlns="http://www.w3.org/2000/svg" xmlns:xlink="http://www.w3.org/1999/xlink" contentStyleType="text/css" data-diagram-type="CLASS" height="942px" preserveAspectRatio="none" style="width:368px;height:942px;background:#FFFFFF;" version="1.1" viewBox="0 0 368 942" width="368px" zoomAndPan="magnify"><title>Logical Data Model for Mini Social Network</title><defs/><g><g class="title" data-source-line="1"><text fill="#000000" font-family="sans-serif" font-size="14" font-weight="bold" lengthAdjust="spacing" textLength="340.0469" x="10" y="22.9951">Logical Data Model for Mini Social Network</text></g><!--class User--><g class="entity" data-qualified-name="User" data-source-line="3" id="ent0002"><rect fill="#F1F1F1" height="178.375" rx="2.5" ry="2.5" style="stroke:#181818;stroke-width:0.5;" width="105.2832" x="145.852" y="44.2969"/><ellipse cx="179.4698" cy="60.2969" fill="#ADD1B2" rx="11" ry="11" style="stroke:#181818;stroke-width:1;"/><path d="M183.5792,66.2969 L175.8605,66.2969 L175.8605,53.9063 L183.5792,53.9063 L183.5792,56.0625 L178.3136,56.0625 L178.3136,58.7344 L183.0792,58.7344 L183.0792,60.8906 L178.3136,60.8906 L178.3136,64.1406 L183.5792,64.1406 L183.5792,66.2969 Z " fill="#000000"/><text fill="#000000" font-family="sans-serif" font-size="14" lengthAdjust="spacing" textLength="31.9102" x="197.6071" y="65.1436">User</text><line style="stroke:#181818;stroke-width:0.5;" x1="146.852" x2="250.1352" y1="76.2969" y2="76.2969"/><g data-visibility-modifier="IE_MANDATORY"><ellipse cx="156.852" cy="89.9453" fill="#000000" rx="3" ry="3" style="stroke:#000000;stroke-width:1;"/></g><text fill="#000000" font-family="sans-serif" font-size="14" lengthAdjust="spacing" textLength="45.7734" x="165.852" y="93.292">id [PK]</text><line style="stroke:#181818;stroke-width:1;" x1="146.852" x2="250.1352" y1="100.5938" y2="100.5938"/><g data-visibility-modifier="IE_MANDATORY"><ellipse cx="156.852" cy="114.2422" fill="#000000" rx="3" ry="3" style="stroke:#000000;stroke-width:1;"/></g><text fill="#000000" font-family="sans-serif" font-size="14" lengthAdjust="spacing" textLength="68.6602" x="165.852" y="117.5889">firstName</text><g data-visibility-modifier="IE_MANDATORY"><ellipse cx="156.852" cy="130.5391" fill="#000000" rx="3" ry="3" style="stroke:#000000;stroke-width:1;"/></g><text fill="#000000" font-family="sans-serif" font-size="14" lengthAdjust="spacing" textLength="66.5547" x="165.852" y="133.8857">lastName</text><g data-visibility-modifier="IE_MANDATORY"><ellipse cx="156.852" cy="146.8359" fill="#000000" rx="3" ry="3" style="stroke:#000000;stroke-width:1;"/></g><text fill="#000000" font-family="sans-serif" font-size="14" lengthAdjust="spacing" textLength="70.2393" x="165.852" y="150.1826">username</text><g data-visibility-modifier="IE_MANDATORY"><ellipse cx="156.852" cy="163.1328" fill="#000000" rx="3" ry="3" style="stroke:#000000;stroke-width:1;"/></g><text fill="#000000" font-family="sans-serif" font-size="14" lengthAdjust="spacing" textLength="38.6094" x="165.852" y="166.4795">email</text><g data-visibility-modifier="IE_MANDATORY"><ellipse cx="156.852" cy="179.4297" fill="#000000" rx="3" ry="3" style="stroke:#000000;stroke-width:1;"/></g><text fill="#000000" font-family="sans-serif" font-size="14" lengthAdjust="spacing" textLength="66.7119" x="165.852" y="182.7764">password</text><g data-visibility-modifier="IE_MANDATORY"><ellipse cx="156.852" cy="195.7266" fill="#000000" rx="3" ry="3" style="stroke:#000000;stroke-width:1;"/></g><text fill="#000000" font-family="sans-serif" font-size="14" lengthAdjust="spacing" textLength="74.7031" x="165.852" y="199.0732">created_at</text><g data-visibility-modifier="IE_MANDATORY"><ellipse cx="156.852" cy="212.0234" fill="#000000" rx="3" ry="3" style="stroke:#000000;stroke-width:1;"/></g><text fill="#000000" font-family="sans-serif" font-size="14" lengthAdjust="spacing" textLength="79.2832" x="165.852" y="215.3701">updated_at</text></g><!--class Post--><g class="entity" data-qualified-name="Post" data-source-line="15" id="ent0003"><rect fill="#F1F1F1" height="129.4844" rx="2.5" ry="2.5" style="stroke:#181818;stroke-width:0.5;" width="108.9199" x="82.032" y="361.6769"/><ellipse cx="118.24" cy="377.6769" fill="#ADD1B2" rx="11" ry="11" style="stroke:#181818;stroke-width:1;"/><path d="M122.3493,383.6769 L114.6306,383.6769 L114.6306,371.2863 L122.3493,371.2863 L122.3493,373.4425 L117.0837,373.4425 L117.0837,376.1144 L121.8493,376.1144 L121.8493,378.2706 L117.0837,378.2706 L117.0837,381.5206 L122.3493,381.5206 L122.3493,383.6769 Z " fill="#000000"/><text fill="#000000" font-family="sans-serif" font-size="14" lengthAdjust="spacing" textLength="29.791" x="136.9529" y="382.5236">Post</text><line style="stroke:#181818;stroke-width:0.5;" x1="83.032" x2="189.9519" y1="393.6769" y2="393.6769"/><g data-visibility-modifier="IE_MANDATORY"><ellipse cx="93.032" cy="407.3253" fill="#000000" rx="3" ry="3" style="stroke:#000000;stroke-width:1;"/></g><text fill="#000000" font-family="sans-serif" font-size="14" lengthAdjust="spacing" textLength="45.7734" x="102.032" y="410.672">id [PK]</text><line style="stroke:#181818;stroke-width:1;" x1="83.032" x2="189.9519" y1="417.9738" y2="417.9738"/><g data-visibility-modifier="IE_MANDATORY"><ellipse cx="93.032" cy="431.6222" fill="#000000" rx="3" ry="3" style="stroke:#000000;stroke-width:1;"/></g><text fill="#000000" font-family="sans-serif" font-size="14" lengthAdjust="spacing" textLength="82.9199" x="102.032" y="434.9689">user_id [FK]</text><g data-visibility-modifier="IE_MANDATORY"><ellipse cx="93.032" cy="447.9191" fill="#000000" rx="3" ry="3" style="stroke:#000000;stroke-width:1;"/></g><text fill="#000000" font-family="sans-serif" font-size="14" lengthAdjust="spacing" textLength="53.6006" x="102.032" y="451.2657">content</text><g data-visibility-modifier="IE_MANDATORY"><ellipse cx="93.032" cy="464.2159" fill="#000000" rx="3" ry="3" style="stroke:#000000;stroke-width:1;"/></g><text fill="#000000" font-family="sans-serif" font-size="14" lengthAdjust="spacing" textLength="74.7031" x="102.032" y="467.5626">created_at</text><g data-visibility-modifier="IE_MANDATORY"><ellipse cx="93.032" cy="480.5128" fill="#000000" rx="3" ry="3" style="stroke:#000000;stroke-width:1;"/></g><text fill="#000000" font-family="sans-serif" font-size="14" lengthAdjust="spacing" textLength="79.2832" x="102.032" y="483.8595">updated_at</text></g><!--class Like--><g class="entity" data-qualified-name="Like" data-source-line="24" id="ent0004"><rect fill="#F1F1F1" height="96.8906" rx="2.5" ry="2.5" style="stroke:#181818;stroke-width:0.5;" width="135.4434" x="130.772" y="630.1569"/><ellipse cx="180.0386" cy="646.1569" fill="#ADD1B2" rx="11" ry="11" style="stroke:#181818;stroke-width:1;"/><path d="M184.1479,652.1569 L176.4292,652.1569 L176.4292,639.7663 L184.1479,639.7663 L184.1479,641.9225 L178.8823,641.9225 L178.8823,644.5944 L183.6479,644.5944 L183.6479,646.7506 L178.8823,646.7506 L178.8823,650.0006 L184.1479,650.0006 L184.1479,652.1569 Z " fill="#000000"/><text fill="#000000" font-family="sans-serif" font-size="14" lengthAdjust="spacing" textLength="28.4102" x="200.5386" y="651.0036">Like</text><line style="stroke:#181818;stroke-width:0.5;" x1="131.772" x2="265.2153" y1="662.1569" y2="662.1569"/><g data-visibility-modifier="IE_MANDATORY"><ellipse cx="141.772" cy="675.8053" fill="#000000" rx="3" ry="3" style="stroke:#000000;stroke-width:1;"/></g><text fill="#000000" font-family="sans-serif" font-size="14" lengthAdjust="spacing" textLength="109.4434" x="150.772" y="679.152">user_id [PK, FK]</text><g data-visibility-modifier="IE_MANDATORY"><ellipse cx="141.772" cy="692.1022" fill="#000000" rx="3" ry="3" style="stroke:#000000;stroke-width:1;"/></g><text fill="#000000" font-family="sans-serif" font-size="14" lengthAdjust="spacing" textLength="109.1426" x="150.772" y="695.4489">post_id [PK, FK]</text><line style="stroke:#181818;stroke-width:1;" x1="131.772" x2="265.2153" y1="702.7506" y2="702.7506"/><g data-visibility-modifier="IE_MANDATORY"><ellipse cx="141.772" cy="716.3991" fill="#000000" rx="3" ry="3" style="stroke:#000000;stroke-width:1;"/></g><text fill="#000000" font-family="sans-serif" font-size="14" lengthAdjust="spacing" textLength="74.7031" x="150.772" y="719.7457">created_at</text></g><!--link User to Post--><g class="link" data-entity-1="ent0002" data-entity-2="ent0003" data-link-type="association" data-source-line="31" id="lnk5"><path codeLine="31" d="M179.642,222.9569 C170.122,267.5969 158.802,320.7369 150.142,361.3669" fill="none" id="User-Post" style="stroke:#181818;stroke-width:1;"/><text fill="#000000" font-family="sans-serif" font-size="13" lengthAdjust="spacing" textLength="48.3247" x="167.462" y="296.7438">creates</text><text fill="#000000" font-family="sans-serif" font-size="13" lengthAdjust="spacing" textLength="8.271" x="169.8318" y="242.7566">1</text><text fill="#000000" font-family="sans-serif" font-size="13" lengthAdjust="spacing" textLength="23.0356" x="127.3791" y="350.5056">0..*</text></g><!--link User to Like--><g class="link" data-entity-1="ent0002" data-entity-2="ent0004" data-link-type="association" data-source-line="32" id="lnk6"><path codeLine="32" d="M246.582,222.8869 C254.662,244.5969 260.492,268.2069 260.492,291.1769 C260.492,291.1769 260.492,291.1769 260.492,561.6569 C260.492,585.8569 249.862,609.8869 237.402,629.7469" fill="none" id="User-Like" style="stroke:#181818;stroke-width:1;"/><text fill="#000000" font-family="sans-serif" font-size="13" lengthAdjust="spacing" textLength="29.5229" x="261.492" y="430.9838">likes</text><text fill="#000000" font-family="sans-serif" font-size="13" lengthAdjust="spacing" textLength="8.271" x="242.1061" y="242.681">1</text><text fill="#000000" font-family="sans-serif" font-size="13" lengthAdjust="spacing" textLength="23.0356" x="218.0874" y="619.2499">0..*</text></g><!--link Post to Like--><g class="link" data-entity-1="ent0003" data-entity-2="ent0004" data-link-type="association" data-source-line="33" id="lnk7"><path codeLine="33" d="M149.602,491.4669 C154.832,515.8669 161.122,543.8769 167.492,569.1569 C172.512,589.0969 178.632,610.9169 184.102,629.7269" fill="none" id="Post-Like" style="stroke:#181818;stroke-width:1;"/><text fill="#000000" font-family="sans-serif" font-size="13" lengthAdjust="spacing" textLength="65.5967" x="168.492" y="565.2238">is liked by</text><text fill="#000000" font-family="sans-serif" font-size="13" lengthAdjust="spacing" textLength="8.271" x="142.5554" y="511.0221">1</text><text fill="#000000" font-family="sans-serif" font-size="13" lengthAdjust="spacing" textLength="23.0356" x="157.6252" y="619.2273">0..*</text></g><g class="legend" data-source-line="35"><rect fill="#DDDDDD" height="176.9688" rx="7.5" ry="7.5" style="stroke:#000000;stroke-width:1;" width="195.7871" x="82.1299" y="745.0475"/><text fill="#000000" font-family="sans-serif" font-size="14" lengthAdjust="spacing" textLength="51.6729" x="87.1299" y="763.0426">Legend</text><text fill="#000000" font-family="sans-serif" font-size="14" lengthAdjust="spacing" textLength="4.4502" x="87.1299" y="781.3395">&#160;</text><text fill="#000000" font-family="sans-serif" font-size="14" font-weight="bold" lengthAdjust="spacing" textLength="58.2354" x="91.5801" y="781.3395">Symbol</text><text fill="#000000" font-family="sans-serif" font-size="14" lengthAdjust="spacing" textLength="4.4502" x="149.8154" y="781.3395">&#160;</text><text fill="#000000" font-family="sans-serif" font-size="14" lengthAdjust="spacing" textLength="4.4502" x="154.2656" y="781.3395">&#160;</text><text fill="#000000" font-family="sans-serif" font-size="14" font-weight="bold" lengthAdjust="spacing" textLength="67.6279" x="158.7158" y="781.3395">Meaning</text><text fill="#000000" font-family="sans-serif" font-size="14" lengthAdjust="spacing" textLength="4.4502" x="226.3438" y="781.3395">&#160;</text><text fill="#000000" font-family="sans-serif" font-size="14" lengthAdjust="spacing" textLength="8.8457" x="91.5801" y="797.6364">E</text><text fill="#000000" font-family="sans-serif" font-size="14" lengthAdjust="spacing" textLength="40.8721" x="158.7158" y="797.6364">Entity</text><text fill="#000000" font-family="sans-serif" font-size="14" lengthAdjust="spacing" textLength="8.9072" x="91.5801" y="813.9332">1</text><text fill="#000000" font-family="sans-serif" font-size="14" lengthAdjust="spacing" textLength="81.5732" x="158.7158" y="813.9332">Exactly one</text><text fill="#000000" font-family="sans-serif" font-size="14" lengthAdjust="spacing" textLength="26.7148" x="91.5801" y="830.2301">0..1</text><text fill="#000000" font-family="sans-serif" font-size="14" lengthAdjust="spacing" textLength="81.7988" x="158.7158" y="830.2301">Zero or one</text><text fill="#000000" font-family="sans-serif" font-size="14" lengthAdjust="spacing" textLength="24.8076" x="91.5801" y="846.527">1..*</text><text fill="#000000" font-family="sans-serif" font-size="14" lengthAdjust="spacing" textLength="91.1025" x="158.7158" y="846.527">One or many</text><text fill="#000000" font-family="sans-serif" font-size="14" lengthAdjust="spacing" textLength="24.8076" x="91.5801" y="862.8239">0..*</text><text fill="#000000" font-family="sans-serif" font-size="14" lengthAdjust="spacing" textLength="95.1221" x="158.7158" y="862.8239">Zero or many</text><text fill="#000000" font-family="sans-serif" font-size="14" lengthAdjust="spacing" textLength="17.623" x="91.5801" y="879.1207">PK</text><text fill="#000000" font-family="sans-serif" font-size="14" lengthAdjust="spacing" textLength="84.875" x="158.7158" y="879.1207">Primary Key</text><text fill="#000000" font-family="sans-serif" font-size="14" lengthAdjust="spacing" textLength="17.2334" x="91.5801" y="895.4176">FK</text><text fill="#000000" font-family="sans-serif" font-size="14" lengthAdjust="spacing" textLength="83.166" x="158.7158" y="895.4176">Foreign Key</text><text fill="#000000" font-family="sans-serif" font-size="14" lengthAdjust="spacing" textLength="52.4248" x="91.5801" y="911.7145">Dot (&#9679;)</text><text fill="#000000" font-family="sans-serif" font-size="14" lengthAdjust="spacing" textLength="109.751" x="158.7158" y="911.7145">Mandatory field</text><line style="stroke:#000000;stroke-width:1;" x1="87.1299" x2="272.917" y1="768.3444" y2="768.3444"/><line style="stroke:#000000;stroke-width:1;" x1="87.1299" x2="272.917" y1="784.6413" y2="784.6413"/><line style="stroke:#000000;stroke-width:1;" x1="87.1299" x2="272.917" y1="800.9381" y2="800.9381"/><line style="stroke:#000000;stroke-width:1;" x1="87.1299" x2="272.917" y1="817.235" y2="817.235"/><line style="stroke:#000000;stroke-width:1;" x1="87.1299" x2="272.917" y1="833.5319" y2="833.5319"/><line style="stroke:#000000;stroke-width:1;" x1="87.1299" x2="272.917" y1="849.8288" y2="849.8288"/><line style="stroke:#000000;stroke-width:1;" x1="87.1299" x2="272.917" y1="866.1256" y2="866.1256"/><line style="stroke:#000000;stroke-width:1;" x1="87.1299" x2="272.917" y1="882.4225" y2="882.4225"/><line style="stroke:#000000;stroke-width:1;" x1="87.1299" x2="272.917" y1="898.7194" y2="898.7194"/><line style="stroke:#000000;stroke-width:1;" x1="87.1299" x2="272.917" y1="915.0163" y2="915.0163"/><line style="stroke:#000000;stroke-width:1;" x1="87.1299" x2="87.1299" y1="768.3444" y2="915.0163"/><line style="stroke:#000000;stroke-width:1;" x1="154.2656" x2="154.2656" y1="768.3444" y2="915.0163"/><line style="stroke:#000000;stroke-width:1;" x1="272.917" x2="272.917" y1="768.3444" y2="915.0163"/></g><?plantuml-src ZP91JiCm44NtESKeAuXeHRTTjzsaAP4gDY1KkV4qZEhObMq44UKCBBaV9s7iD565YiGg_czc_lSayUGLmjBKL0a5C-4554QYWfsnK90cM9kAkBH2_shiFabGU_8jt3kqy9u0P40I7ilyYS-ZKGGxiiwlH8DHAN4cNdXCzm8RGIgU3i8vjfTHL1Q5HxaHlXivo5v-3F6bSVwl-92n2NGHAHiQxNdkt-PBskF9VF0gynle_GuS_WkUei_SsIw-etIISdK4wUrudANTnQUdHdUn9SPFGV739R7_SWEvs2DXsoQ9mXgr14lriq-MKIH7oB9rssoDoZ88ea2XITT1SN7ERDvj7EGao3THUTM2qHWPvmNyWDO0_n0zdl0r6D-nPDe8tVRTsLdtmCkSQMcf4RQ573ku271XB5Aj1pWp7gw-lpwlZr08pP_6yCIEK4akyqhTbZy0?></g></svg>